PathFileType	4	(X/Y/Z)	C:\Users\86182\Documents\cortex\Trimmed_M1_H9.trc
DataRate	CameraRate	NumFrames	NumMarkers	Units	OrigDataRate	OrigDataStartFrame	OrigNumFrames
100.00	100.00	       70	2	mm	100.00	541	       901
Frame#	Time	gripper			box			
		X1	Y1	Z1	X2	Y2	Z2	

541	5.400	222.05898	204.48044	286.53714	227.90582	203.73413	136.55624	
542	5.410	222.04376	204.47314	286.53864	227.90578	203.73409	136.55652	
543	5.420	222.04376	204.47314	286.53864	227.90573	203.73402	136.55685	
544	5.430	222.08948	204.49507	286.53418	227.90569	203.73396	136.55719	
545	5.440	222.12288	204.46289	286.52979	227.90565	203.73392	136.55746	
546	5.450	222.08443	204.49265	286.53467	227.90564	203.73390	136.55757	
547	5.460	222.12056	204.48930	286.52765	227.90565	203.73392	136.55746	
548	5.470	222.04376	204.47314	286.53864	227.90569	203.73396	136.55719	
549	5.480	222.17378	204.48729	286.52478	227.90573	203.73402	136.55690	
550	5.490	222.09978	204.50002	286.53314	227.90576	203.73405	136.55669	
551	5.500	222.13971	204.49171	286.52863	227.90576	203.73407	136.55663	
552	5.510	222.22404	204.52499	286.50516	227.90575	203.73405	136.55673	
553	5.520	222.17441	204.49445	286.51862	227.90572	203.73401	136.55698	
554	5.530	222.14098	204.48602	286.53241	227.90567	203.73395	136.55734	
555	5.540	222.08948	204.49507	286.53418	227.90561	203.73387	136.55774	
556	5.550	222.04376	204.47314	286.53864	227.90556	203.73381	136.55811	
557	5.560	222.14563	204.45993	286.52722	227.90552	203.73375	136.55841	
558	5.570	222.14941	204.46870	286.52704	227.90549	203.73370	136.55867	
559	5.580	222.07426	204.48778	286.53564	227.90547	203.73367	136.55882	
560	5.590	222.15614	204.49271	286.52686	227.90546	203.73367	136.55884	
561	5.600	222.17613	204.47455	286.52423	227.90549	203.73370	136.55869	
562	5.610	222.28961	204.49409	286.51236	227.90553	203.73376	136.55835	
563	5.620	222.07999	204.47174	286.53561	227.90558	203.73383	136.55794	
564	5.630	222.16119	204.49512	286.52637	227.90562	203.73387	136.55766	
565	5.640	222.22829	204.49265	286.51901	227.90562	203.73389	136.55762	
566	5.650	222.19876	204.54727	286.51230	227.90559	203.73384	136.55786	
567	5.660	222.13812	204.51826	286.52213	227.90553	203.73376	136.55832	
568	5.670	222.21545	204.52107	286.51706	227.90546	203.73367	136.55882	
569	5.680	222.06914	204.48532	286.53616	227.90541	203.73361	136.55916	
570	5.690	222.20671	204.48921	286.52124	227.90541	203.73361	136.55919	
571	5.700	222.13420	204.46141	286.52850	227.90546	203.73366	136.55893	
572	5.710	222.40370	204.46437	286.50330	227.90552	203.73375	136.55847	
573	5.720	222.31041	204.47649	286.51373	227.90559	203.73384	136.55789	
574	5.730	222.34464	204.46323	286.51279	227.90567	203.73395	136.55731	
575	5.740	222.34294	204.43578	286.51337	227.90575	203.73404	136.55681	
576	5.750	222.18002	204.49908	286.52545	227.90579	203.73410	136.55643	
577	5.760	222.08443	204.49265	286.53467	227.90582	203.73415	136.55618	
578	5.770	222.18065	204.51135	286.52466	227.90584	203.73418	136.55602	
579	5.780	222.04889	204.47560	286.53812	227.90585	203.73419	136.55594	
580	5.790	222.12230	204.49709	286.53064	227.90585	203.73419	136.55589	
581	5.800	222.11218	204.50591	286.52896	227.90585	203.73419	136.55588	
582	5.810	222.22910	204.52745	286.50681	227.90585	203.73419	136.55589	
583	5.820	222.20424	204.52919	286.50555	227.90585	203.73419	136.55591	
584	5.830	222.16859	204.48480	286.52530	227.90585	203.73418	136.55597	
585	5.840	222.26141	204.49460	286.51547	227.90584	203.73416	136.55606	
586	5.850	222.25633	204.45193	286.51602	227.90582	203.73413	136.55621	
587	5.860	222.36180	204.47224	286.50397	227.90579	203.73410	136.55644	
588	5.870	222.04376	204.47314	286.53864	227.90576	203.73404	136.55675	
589	5.880	222.21300	204.48532	286.52048	227.90570	203.73398	136.55713	
590	5.890	222.43202	204.48038	286.50574	227.90565	203.73392	136.55753	
591	5.900	222.37053	204.47130	286.50403	227.90561	203.73384	136.55789	
592	5.910	222.10587	204.49611	286.53241	227.90556	203.73380	136.55815	
593	5.920	222.09978	204.50002	286.53314	227.90555	203.73378	136.55827	
594	5.930	222.35233	204.47675	286.50613	227.90556	203.73380	136.55817	
595	5.940	222.50449	204.49663	286.48007	227.90561	203.73386	136.55783	
596	5.950	222.15402	204.50540	286.52737	227.90567	203.73393	136.55737	
597	5.960	222.23654	204.52426	286.51367	227.90573	203.73401	136.55693	
598	5.970	222.05392	204.47803	286.53763	227.90578	203.73407	136.55659	
599	5.980	222.11557	204.50746	286.52518	227.90581	203.73410	136.55643	
600	5.990	222.04376	204.47314	286.53864	227.90581	203.73412	136.55643	
601	6.000	222.22916	204.50876	286.51932	227.90579	203.73409	136.55661	
602	6.010	222.45258	204.43500	286.50763	227.90576	203.73402	136.55695	
603	6.020	222.22180	204.46863	286.51913	227.90572	203.73396	136.55737	
604	6.030	222.13866	204.49803	286.52887	227.90565	203.73389	136.55780	
605	6.040	222.25758	204.45775	286.51498	227.90561	203.73383	136.55806	
606	6.050	222.54173	204.44025	286.50543	227.90558	203.73381	136.55807	
607	6.060	222.23840	204.46954	286.51736	227.90553	203.73381	136.55786	
608	6.070	222.35077	204.59871	286.44925	227.90544	203.73383	136.55754	
609	6.080	222.31592	204.43800	286.50919	227.90530	203.73378	136.55731	
610	6.090	222.64801	204.62236	286.40347	227.90506	203.73367	136.55739	
